# xmcd
#
# Track frame offsets:
#      150
#      18489
#      31576
#      49952
#      68663
#      84001
#      101446
#      124459
#      141058
#      156566
#      170600
#      183862
#      198230
# 
# Disc length: 2990 seconds
#
# Revision: 3
# Processed by: cddbd v1.4PL0 Copyright (c) Steve Scherf et al.
#
# Submitted via: FreeRIP 1.21
#
DISCID=a60bac0d
DTITLE=Alan Jackson - Drive
DYEAR=1900
DGENRE=Country
TTITLE0=Drive (For Daddy Gene) by Alan Jackson
TTITLE1=A Little Bluer Than That by Alan Jackson
TTITLE2=Bring On The Night by Alan Jackson
TTITLE3=Work In Progress by Alan Jackson
TTITLE4=The Sounds by Alan Jackson
TTITLE5=Designated Drinker (Duet With George Strait) by Alan Jackson
TTITLE6=Where Were You (When The World Stopped Turning)(Studio) by Alan Jackson
TTITLE7=That'd Be Alright(2) by Alan Jackson
TTITLE8=Once In A Lifetime Love by Alan Jackson
TTITLE9=When Love Comes Around by Alan Jackson
TTITLE10=I Slipped And Fell In Love by Alan Jackson
TTITLE11=First Love by Alan Jackson
TTITLE12=Where Were You (When The World Stopped Turning) Bonus Live Track by Ala
EXTD=ID3G: 2
EXTT0=
EXTT1=
EXTT2=
EXTT3=
EXTT4=
EXTT5=
EXTT6=
EXTT7=
EXTT8=
EXTT9=
EXTT10=
EXTT11=
EXTT12=
PLAYORDER=
